<?xml version="1.0" encoding="UTF-8" standalone="no"?>
<!DOCTYPE svg PUBLIC "-//W3C//DTD SVG 1.1//EN" "http://www.w3.org/Graphics/SVG/1.1/DTD/svg11.dtd">
<svg width="100%" height="100%" viewBox="0 0 2481 2481" version="1.1" xmlns="http://www.w3.org/2000/svg" xmlns:xlink="http://www.w3.org/1999/xlink" xml:space="preserve" xmlns:serif="http://www.serif.com/" style="fill-rule:evenodd;clip-rule:evenodd;stroke-linejoin:round;stroke-miterlimit:2;">
    <g transform="matrix(1.52782,0,0,1.52782,-573.312,-762.982)">
        <g transform="matrix(8.20784,0,-2.4978,8.16992,531.131,-11085.9)">
            <path d="M512.959,1499.41L520.65,1499.41C525.614,1499.41 528.971,1499.64 530.721,1500.1C532.47,1500.55 533.801,1501.3 534.712,1502.34C535.624,1503.38 536.193,1504.54 536.421,1505.82C536.649,1507.1 536.763,1509.61 536.763,1513.35L536.763,1527.19C536.763,1530.74 536.596,1533.12 536.263,1534.31C535.929,1535.51 535.347,1536.44 534.517,1537.12C533.687,1537.8 532.662,1538.27 531.441,1538.54C530.22,1538.8 528.381,1538.94 525.923,1538.94L512.959,1538.94L512.959,1499.41ZM523.238,1506.17L523.238,1532.18C524.719,1532.18 525.63,1531.88 525.972,1531.28C526.314,1530.69 526.485,1529.08 526.485,1526.44L526.485,1511.08C526.485,1509.29 526.428,1508.14 526.314,1507.64C526.2,1507.13 525.94,1506.77 525.533,1506.53C525.126,1506.29 524.361,1506.17 523.238,1506.17Z" style="fill-rule:nonzero;"/>
            <path d="M550.166,1506.54L549.776,1510.8C551.208,1507.75 553.283,1506.13 556.001,1505.95L556.001,1517.36C554.195,1517.36 552.868,1517.6 552.022,1518.09C551.176,1518.58 550.655,1519.26 550.459,1520.13C550.264,1521 550.166,1523 550.166,1526.14L550.166,1538.94L540.303,1538.94L540.303,1506.54L550.166,1506.54Z" style="fill-rule:nonzero;"/>
            <path d="M580.513,1517.92L580.513,1525.85C580.513,1528.77 580.367,1530.9 580.074,1532.26C579.781,1533.62 579.154,1534.89 578.194,1536.07C577.233,1537.25 576.001,1538.12 574.495,1538.68C572.99,1539.24 571.26,1539.52 569.307,1539.52C567.126,1539.52 565.279,1539.28 563.765,1538.8C562.251,1538.32 561.075,1537.6 560.237,1536.63C559.399,1535.66 558.801,1534.49 558.443,1533.12C558.085,1531.74 557.906,1529.68 557.906,1526.93L557.906,1518.63C557.906,1515.62 558.231,1513.26 558.882,1511.57C559.533,1509.88 560.705,1508.52 562.398,1507.49C564.091,1506.47 566.255,1505.95 568.892,1505.95C571.106,1505.95 573.006,1506.28 574.593,1506.94C576.18,1507.6 577.404,1508.46 578.267,1509.52C579.13,1510.58 579.72,1511.67 580.037,1512.79C580.354,1513.91 580.513,1515.62 580.513,1517.92ZM570.65,1515.48C570.65,1513.82 570.56,1512.77 570.381,1512.34C570.202,1511.91 569.82,1511.69 569.234,1511.69C568.648,1511.69 568.257,1511.91 568.062,1512.34C567.867,1512.77 567.769,1513.82 567.769,1515.48L567.769,1530.1C567.769,1531.63 567.867,1532.63 568.062,1533.09C568.257,1533.56 568.64,1533.79 569.209,1533.79C569.795,1533.79 570.182,1533.58 570.369,1533.15C570.556,1532.73 570.65,1531.82 570.65,1530.42L570.65,1515.48Z" style="fill-rule:nonzero;"/>
            <path d="M593.794,1506.54L593.623,1509.53C594.34,1508.34 595.214,1507.44 596.248,1506.85C597.281,1506.25 598.474,1505.95 599.825,1505.95C601.517,1505.95 602.901,1506.35 603.975,1507.15C605.049,1507.95 605.741,1508.95 606.05,1510.17C606.359,1511.38 606.514,1513.4 606.514,1516.23L606.514,1538.94L596.651,1538.94L596.651,1516.5C596.651,1514.27 596.578,1512.91 596.431,1512.42C596.285,1511.94 595.878,1511.69 595.21,1511.69C594.511,1511.69 594.071,1511.97 593.892,1512.53C593.713,1513.1 593.623,1514.6 593.623,1517.04L593.623,1538.94L583.76,1538.94L583.76,1506.54L593.794,1506.54Z" style="fill-rule:nonzero;"/>
            <path d="M632.247,1523.31L619.478,1523.31L619.478,1530.32C619.478,1531.79 619.584,1532.73 619.795,1533.15C620.007,1533.58 620.414,1533.79 621.016,1533.79C621.765,1533.79 622.265,1533.51 622.517,1532.94C622.77,1532.38 622.896,1531.3 622.896,1529.68L622.896,1525.41L632.247,1525.41L632.247,1527.81C632.247,1529.81 632.12,1531.35 631.868,1532.42C631.616,1533.49 631.026,1534.64 630.098,1535.86C629.17,1537.08 627.994,1538 626.57,1538.61C625.146,1539.22 623.36,1539.52 621.211,1539.52C619.128,1539.52 617.289,1539.22 615.694,1538.62C614.099,1538.02 612.858,1537.19 611.971,1536.14C611.084,1535.09 610.469,1533.94 610.127,1532.68C609.786,1531.41 609.615,1529.58 609.615,1527.17L609.615,1517.72C609.615,1514.89 609.997,1512.66 610.762,1511.02C611.527,1509.38 612.78,1508.13 614.522,1507.26C616.263,1506.39 618.265,1505.95 620.528,1505.95C623.295,1505.95 625.577,1506.48 627.376,1507.53C629.174,1508.58 630.436,1509.97 631.16,1511.7C631.884,1513.44 632.247,1515.88 632.247,1519.02L632.247,1523.31ZM622.359,1518.04L622.359,1515.67C622.359,1514 622.269,1512.91 622.09,1512.42C621.911,1511.94 621.545,1511.69 620.992,1511.69C620.308,1511.69 619.885,1511.9 619.722,1512.32C619.559,1512.73 619.478,1513.85 619.478,1515.67L619.478,1518.04L622.359,1518.04Z" style="fill-rule:nonzero;"/>
        </g>
        <g transform="matrix(1,0,0,1,178.488,-78.5743)">
            <path d="M353.235,1172.35C353.235,1172.35 289.401,1351.38 259.318,1442.6C210.563,1590.43 302.731,1682.31 396.065,1715.49C500.57,1752.65 631.044,1705.24 684.267,1572.74C724.334,1473 759.852,1344.63 797.853,1222.07C801.584,1210.04 809.82,1198.89 819.787,1190.8C826.258,1185.54 833.282,1180.58 840.87,1181.17C1414.35,1226.17 1667.33,1162.83 1667.33,1162.83L1705.91,1134.53C1705.91,1134.53 1409.46,1173.97 850.744,1055.34C799.667,1044.49 754.711,1056.6 718.976,1104.21C705.352,1122.37 691.624,1138.48 677.294,1184.69C640.35,1303.84 606.094,1428.73 567.143,1525.69C542.815,1586.26 486.115,1613.55 438.347,1596.56C398.958,1582.56 358.612,1544.52 379.188,1482.13C409.01,1391.71 486.94,1172.35 486.94,1172.35L353.235,1172.35Z" style="fill:url(#_Linear1);"/>
        </g>
    </g>
    <defs>
        <linearGradient id="_Linear1" x1="0" y1="0" x2="1" y2="0" gradientUnits="userSpaceOnUse" gradientTransform="matrix(730.038,0,0,730.038,975.868,1154.73)"><stop offset="0" style="stop-color:black;stop-opacity:1"/><stop offset="1" style="stop-color:black;stop-opacity:0"/></linearGradient>
    </defs>
</svg>
